<svg width="24" height="24" viewBox="0 0 24 24" fill="none" xmlns="http://www.w3.org/2000/svg">
<g style="mix-blend-mode:multiply">
<rect width="24" height="24" fill="none"/>
<rect width="24" height="24" rx="4" fill="#5925DC"/>
<path d="M8.25366 17.18C7.64166 17.18 7.08966 17.076 6.59766 16.868C6.10966 16.66 5.70566 16.364 5.38566 15.98C5.06966 15.592 4.86366 15.134 4.76766 14.606L5.87166 14.432C6.01166 14.976 6.30166 15.402 6.74166 15.71C7.18566 16.014 7.70766 16.166 8.30766 16.166C8.69566 16.166 9.04566 16.106 9.35766 15.986C9.67366 15.862 9.92366 15.686 10.1077 15.458C10.2917 15.23 10.3837 14.96 10.3837 14.648C10.3837 14.456 10.3497 14.292 10.2817 14.156C10.2177 14.016 10.1277 13.898 10.0117 13.802C9.89966 13.702 9.77166 13.618 9.62766 13.55C9.48366 13.482 9.33366 13.426 9.17766 13.382L6.97566 12.728C6.73566 12.656 6.50366 12.566 6.27966 12.458C6.05566 12.346 5.85566 12.208 5.67966 12.044C5.50366 11.876 5.36366 11.676 5.25966 11.444C5.15566 11.208 5.10366 10.93 5.10366 10.61C5.10366 10.098 5.23566 9.662 5.49966 9.302C5.76766 8.938 6.12966 8.66 6.58566 8.468C7.04166 8.276 7.55566 8.182 8.12766 8.186C8.70766 8.19 9.22566 8.294 9.68166 8.498C10.1417 8.698 10.5217 8.986 10.8217 9.362C11.1257 9.738 11.3297 10.188 11.4337 10.712L10.2997 10.91C10.2397 10.558 10.1057 10.256 9.89766 10.004C9.69366 9.748 9.43766 9.552 9.12966 9.416C8.82166 9.276 8.48366 9.204 8.11566 9.2C7.76366 9.196 7.44566 9.252 7.16166 9.368C6.87766 9.484 6.65166 9.646 6.48366 9.854C6.31566 10.058 6.23166 10.294 6.23166 10.562C6.23166 10.826 6.30766 11.04 6.45966 11.204C6.61166 11.364 6.79766 11.492 7.01766 11.588C7.24166 11.68 7.45966 11.756 7.67166 11.816L9.31566 12.29C9.50366 12.342 9.71966 12.414 9.96366 12.506C10.2117 12.598 10.4517 12.728 10.6837 12.896C10.9157 13.06 11.1077 13.28 11.2597 13.556C11.4117 13.828 11.4877 14.172 11.4877 14.588C11.4877 15.004 11.4037 15.374 11.2357 15.698C11.0717 16.022 10.8417 16.294 10.5457 16.514C10.2497 16.73 9.90566 16.894 9.51366 17.006C9.12166 17.122 8.70166 17.18 8.25366 17.18ZM12.1463 17L15.0383 8.36H16.5263L19.4183 17H18.3083L15.6023 8.984H15.9383L13.2563 17H12.1463ZM13.5383 14.978V13.976H18.0263V14.978H13.5383Z" fill="#EBE9FE"/>
</g>
</svg>
