<svg width="24" height="24" viewBox="0 0 24 24" fill="none" xmlns="http://www.w3.org/2000/svg">
<path d="M12.1862 24H12.1792C8.59817 23.976 5.84517 22.795 3.99517 20.491C2.35017 18.44 1.50017 15.586 1.47217 12.01V11.993C1.50217 8.414 2.35117 5.563 3.99717 3.511C5.84517 1.205 8.60017 0.024 12.1802 0H12.1942C14.9402 0.02 17.2372 0.725 19.0202 2.098C20.6972 3.388 21.8782 5.228 22.5292 7.565L20.4892 8.134C19.3852 4.174 16.5912 2.15 12.1852 2.119C9.27517 2.141 7.07517 3.055 5.64517 4.836C4.30717 6.504 3.61617 8.914 3.58917 12C3.61617 15.086 4.30717 17.496 5.64617 19.164C7.07617 20.947 9.27717 21.862 12.1862 21.881C14.8092 21.861 16.5442 21.25 17.9862 19.836C19.6332 18.223 19.6042 16.243 19.0762 15.038C18.7662 14.328 18.2032 13.738 17.4422 13.288C17.2502 14.64 16.8202 15.734 16.1582 16.56C15.2722 17.662 14.0182 18.264 12.4282 18.35C11.2262 18.415 10.0672 18.132 9.16917 17.549C8.10617 16.86 7.48417 15.809 7.41717 14.585C7.35217 13.395 7.82517 12.3 8.74717 11.503C9.62717 10.743 10.8662 10.296 12.3302 10.212C13.339 10.1502 14.3516 10.1978 15.3502 10.354C15.2242 9.612 14.9752 9.022 14.6002 8.597C14.0872 8.011 13.2922 7.714 12.2412 7.707H12.2122C11.3682 7.707 10.2202 7.939 9.49117 9.027L7.73417 7.847C8.71417 6.393 10.3022 5.591 12.2122 5.591H12.2562C15.4502 5.611 17.3532 7.566 17.5432 10.979C17.6518 11.0257 17.7588 11.073 17.8642 11.121C19.3542 11.821 20.4442 12.882 21.0182 14.191C21.8152 16.011 21.8892 18.981 19.4702 21.349C17.6202 23.159 15.3762 23.977 12.1932 23.999L12.1862 24ZM13.1892 12.31C12.9478 12.31 12.7015 12.317 12.4502 12.331C10.6142 12.434 9.47017 13.277 9.53417 14.474C9.60117 15.73 10.9862 16.313 12.3182 16.241C13.5422 16.176 15.1362 15.698 15.4042 12.531C14.6758 12.3791 13.9332 12.305 13.1892 12.31Z" fill="#98A2B3"/>
</svg>
