<svg width="16" height="16" viewBox="0 0 12 12" fill="none" xmlns="http://www.w3.org/2000/svg">
<g clip-path="url(#clip0_133_1221)">
<path d="M0.75 4.55C0.75 3.21988 0.75 2.55481 1.00886 2.04677C1.23656 1.59989 1.59989 1.23656 2.04677 1.00886C2.55481 0.75 3.21988 0.75 4.55 0.75H7.45C8.78012 0.75 9.44519 0.75 9.95323 1.00886C10.4001 1.23656 10.7634 1.59989 10.9911 2.04677C11.25 2.55481 11.25 3.21988 11.25 4.55V7.45C11.25 8.78012 11.25 9.44519 10.9911 9.95323C10.7634 10.4001 10.4001 10.7634 9.95323 10.9911C9.44519 11.25 8.78012 11.25 7.45 11.25H4.55C3.21988 11.25 2.55481 11.25 2.04677 10.9911C1.59989 10.7634 1.23656 10.4001 1.00886 9.95323C0.75 9.44519 0.75 8.78012 0.75 7.45V4.55Z" fill="#242424"/>
<path d="M3.69996 6.15005C2.23746 7.22644 1.94995 8.80005 1.94995 10.1125C2.01662 9.72088 2.32245 8.80255 3.01245 8.26255C4.03745 7.46037 5.91244 7.72464 7.96245 6.36255C10.0125 5.00046 10.2125 3.22505 9.94995 1.86255C9.76757 3.17726 9.14515 3.75023 8.28745 4.26255C6.42496 5.37505 5.26246 5.00005 3.69996 6.15005Z" fill="url(#paint0_linear_133_1221)"/>
<path d="M3.69996 6.15005C2.23746 7.22644 1.94995 8.80005 1.94995 10.1125C2.01662 9.72088 2.32245 8.80255 3.01245 8.26255C4.03745 7.46037 5.91244 7.72464 7.96245 6.36255C10.0125 5.00046 10.2125 3.22505 9.94995 1.86255C9.76757 3.17726 9.14515 3.75023 8.28745 4.26255C6.42496 5.37505 5.26246 5.00005 3.69996 6.15005Z" fill="url(#paint1_linear_133_1221)"/>
<path d="M1.96753 9.57444C2.04778 8.38851 2.43286 7.08259 3.70004 6.14995C4.5146 5.55043 5.22046 5.36537 5.97345 5.16795C6.41288 5.05274 6.86837 4.93331 7.37089 4.72485C7.18755 4.89995 6.31638 5.3087 5.65926 5.58181C5.00386 5.85421 4.31288 6.14139 3.73754 6.52495C2.58322 7.2945 2.11386 8.63339 1.96753 9.57444Z" fill="url(#paint2_linear_133_1221)"/>
<path d="M1.96753 9.57444C2.04778 8.38851 2.43286 7.08259 3.70004 6.14995C4.5146 5.55043 5.22046 5.36537 5.97345 5.16795C6.41288 5.05274 6.86837 4.93331 7.37089 4.72485C7.18755 4.89995 6.31638 5.3087 5.65926 5.58181C5.00386 5.85421 4.31288 6.14139 3.73754 6.52495C2.58322 7.2945 2.11386 8.63339 1.96753 9.57444Z" fill="url(#paint3_linear_133_1221)"/>
<path d="M9.0816 5.38905C8.93786 5.52985 8.7776 5.65589 8.59997 5.76247C7.79996 6.24247 6.94963 6.39727 6.12223 6.54789C5.4629 6.66792 4.81811 6.7853 4.22497 7.06247C2.88755 7.68743 2.06258 8.9873 1.94999 10.1122C1.94998 10.1123 1.94997 10.1123 1.94996 10.1124C1.94996 10.1122 1.94996 10.112 1.94995 10.1118C1.94996 10.0259 1.9512 9.93893 1.95391 9.85103C1.96073 9.7116 1.97514 9.55709 1.999 9.39233C2.17556 8.46717 2.65577 7.24609 3.73746 6.52496C4.19537 6.21969 4.72653 5.97547 5.25471 5.75116C5.7192 5.59866 6.13783 5.50375 6.53668 5.41333C7.16453 5.27098 7.74338 5.13975 8.37497 4.81247C9.70025 4.12574 10.0475 2.71452 9.95413 1.8844C10.1523 2.93623 10.0722 4.22994 9.0816 5.38905Z" fill="url(#paint4_linear_133_1221)"/>
<path d="M9.08167 5.38916C8.93794 5.52995 8.77769 5.65598 8.60007 5.76255C7.80007 6.24255 6.94974 6.39735 6.12233 6.54797C5.463 6.668 4.81822 6.78538 4.22507 7.06255C3.45592 7.42197 2.85626 8.0046 2.46411 8.64881C2.81012 8.16262 3.33723 7.61948 3.98757 7.41255C4.62216 7.21064 5.22746 7.18977 5.85631 7.1681C6.03655 7.16189 6.21872 7.15561 6.40407 7.14498C6.9036 6.96313 7.42711 6.71832 7.96255 6.36255C8.42409 6.0559 8.79185 5.72829 9.08167 5.38916Z" fill="url(#paint5_linear_133_1221)"/>
<path d="M9.08167 5.38916C8.93794 5.52995 8.77769 5.65598 8.60007 5.76255C7.80007 6.24255 6.94974 6.39735 6.12233 6.54797C5.463 6.668 4.81822 6.78538 4.22507 7.06255C3.45592 7.42197 2.85626 8.0046 2.46411 8.64881C2.81012 8.16262 3.33723 7.61948 3.98757 7.41255C4.62216 7.21064 5.22746 7.18977 5.85631 7.1681C6.03655 7.16189 6.21872 7.15561 6.40407 7.14498C6.9036 6.96313 7.42711 6.71832 7.96255 6.36255C8.42409 6.0559 8.79185 5.72829 9.08167 5.38916Z" fill="url(#paint6_linear_133_1221)"/>
<path d="M9.95417 1.88448C9.95279 1.87716 9.9514 1.86985 9.95 1.86255C9.76761 3.17726 9.1452 3.75023 8.28749 4.26255C7.96258 4.45663 7.65897 4.60543 7.37083 4.72496C7.18745 4.90007 6.31631 5.3088 5.65922 5.5819L5.65911 5.58195C5.52538 5.63753 5.39017 5.69373 5.25476 5.75123C5.71925 5.59873 6.13787 5.50383 6.53672 5.4134C7.16457 5.27106 7.74342 5.13983 8.37501 4.81255C9.70029 4.12581 10.0475 2.7146 9.95417 1.88448Z" fill="url(#paint7_linear_133_1221)"/>
<path d="M9.95417 1.88448C9.95279 1.87716 9.9514 1.86985 9.95 1.86255C9.76761 3.17726 9.1452 3.75023 8.28749 4.26255C7.96258 4.45663 7.65897 4.60543 7.37083 4.72496C7.18745 4.90007 6.31631 5.3088 5.65922 5.5819L5.65911 5.58195C5.52538 5.63753 5.39017 5.69373 5.25476 5.75123C5.71925 5.59873 6.13787 5.50383 6.53672 5.4134C7.16457 5.27106 7.74342 5.13983 8.37501 4.81255C9.70029 4.12581 10.0475 2.7146 9.95417 1.88448Z" fill="url(#paint8_linear_133_1221)"/>
</g>
<defs>
<linearGradient id="paint0_linear_133_1221" x1="6.52495" y1="6.82505" x2="2.19995" y2="9.92505" gradientUnits="userSpaceOnUse">
<stop stop-color="#FE5004"/>
<stop offset="0.602538" stop-color="#FFB915"/>
<stop offset="1" stop-color="#FFFC41"/>
</linearGradient>
<linearGradient id="paint1_linear_133_1221" x1="4.81245" y1="7.08755" x2="4.83745" y2="7.53755" gradientUnits="userSpaceOnUse">
<stop stop-color="#FD3E00"/>
<stop offset="1" stop-color="#FD4400" stop-opacity="0"/>
</linearGradient>
<linearGradient id="paint2_linear_133_1221" x1="7.37504" y1="4.49995" x2="1.27504" y2="9.92495" gradientUnits="userSpaceOnUse">
<stop stop-color="#005FC6"/>
<stop offset="0.279756" stop-color="#23A4DF"/>
<stop offset="0.465158" stop-color="#3AC2B7"/>
<stop offset="0.640642" stop-color="#60EC7A"/>
<stop offset="0.818668" stop-color="#CFFDBD"/>
<stop offset="1" stop-color="#D0FCB6"/>
</linearGradient>
<linearGradient id="paint3_linear_133_1221" x1="6.13754" y1="5.53745" x2="5.61254" y2="5.06245" gradientUnits="userSpaceOnUse">
<stop stop-color="#0061CB"/>
<stop offset="1" stop-color="#067EEA" stop-opacity="0"/>
</linearGradient>
<linearGradient id="paint4_linear_133_1221" x1="9.97495" y1="1.87497" x2="1.94995" y2="10.1" gradientUnits="userSpaceOnUse">
<stop stop-color="#8E55F1"/>
<stop offset="0.140795" stop-color="#8B48DF"/>
<stop offset="0.274905" stop-color="#E04DD9"/>
<stop offset="0.492309" stop-color="#F496C8"/>
<stop offset="0.633104" stop-color="#FAD2BA"/>
<stop offset="0.856964" stop-color="#FEF7E5"/>
<stop offset="1" stop-color="#FFF5BF"/>
</linearGradient>
<linearGradient id="paint5_linear_133_1221" x1="9.18755" y1="5.31255" x2="2.63755" y2="8.27505" gradientUnits="userSpaceOnUse">
<stop stop-color="#F41A73"/>
<stop offset="0.399909" stop-color="#FC50A3"/>
<stop offset="0.584511" stop-color="#FE9485"/>
<stop offset="0.703104" stop-color="#FFAF88"/>
<stop offset="1" stop-color="#FFC385"/>
</linearGradient>
<linearGradient id="paint6_linear_133_1221" x1="6.82505" y1="6.22505" x2="6.83755" y2="6.82506" gradientUnits="userSpaceOnUse">
<stop stop-color="#9B0008"/>
<stop offset="1" stop-color="#EA115A" stop-opacity="0"/>
</linearGradient>
<linearGradient id="paint7_linear_133_1221" x1="9.97499" y1="2.55005" x2="4.06249" y2="6.41255" gradientUnits="userSpaceOnUse">
<stop stop-color="#231283"/>
<stop offset="0.362865" stop-color="#7053C6"/>
<stop offset="0.466353" stop-color="#7272DB"/>
<stop offset="0.634311" stop-color="#399EE9"/>
<stop offset="1" stop-color="#00CFFF"/>
</linearGradient>
<linearGradient id="paint8_linear_133_1221" x1="8.49999" y1="4.50005" x2="8.76249" y2="4.83755" gradientUnits="userSpaceOnUse">
<stop stop-color="#3F259D" stop-opacity="0"/>
<stop offset="1" stop-color="#412DAA"/>
</linearGradient>
<clipPath id="clip0_133_1221">
<rect width="12" height="12" fill="white"/>
</clipPath>
</defs>
</svg>
