<svg width="16" height="16" viewBox="0 0 12 12" fill="none" xmlns="http://www.w3.org/2000/svg">
<path d="M7.00458 5.99096C7.00458 5.45305 6.55484 5.01695 6 5.01695C5.44521 5.01695 4.99542 5.45305 4.99542 5.99096C4.99542 6.52892 5.44521 6.96503 6 6.96503C6.55484 6.96503 7.00458 6.52892 7.00458 5.99096Z" fill="#53C1DE"/>
<path fill-rule="evenodd" clip-rule="evenodd" d="M9.26264 4.18264C9.47479 3.34679 9.74146 1.79681 8.8014 1.27131C7.86575 0.748105 6.64816 1.75066 6.00523 2.35244C5.36416 1.75666 4.11238 0.758387 3.17311 1.28555C2.23782 1.81051 2.52624 3.3348 2.74309 4.17588C1.87062 4.41615 0.375 4.93365 0.375 5.99096C0.375 7.04528 1.86906 7.6083 2.73637 7.84834C2.51872 8.69408 2.24473 10.1966 3.18123 10.7204C4.12398 11.2474 5.37189 10.2729 6.02076 9.66458C6.66782 10.2699 7.87373 11.2508 8.80956 10.7255C9.74837 10.1986 9.50384 8.6694 9.28698 7.82343C10.1277 7.58287 11.625 7.03212 11.625 5.99096C11.625 4.9438 10.1214 4.4221 9.26264 4.18264ZM9.15609 7.37511C9.01369 6.93809 8.82151 6.47336 8.58641 5.99328C8.81081 5.52455 8.99552 5.0658 9.13393 4.63158C9.76345 4.80854 11.1444 5.21299 11.1444 5.99096C11.1444 6.77624 9.81924 7.18451 9.15609 7.37511ZM8.56874 10.3223C7.87052 10.7141 6.8333 9.77612 6.35544 9.33033C6.67244 8.99416 6.98925 8.60333 7.29843 8.16936C7.84232 8.12258 8.35614 8.04607 8.82211 7.94165C8.97474 8.54003 9.27008 9.9286 8.56874 10.3223ZM3.42136 10.3167C2.72304 9.92626 3.04222 8.58549 3.20234 7.9625C3.66313 8.06132 4.17321 8.13243 4.7184 8.17529C5.02962 8.59996 5.35559 8.99029 5.68409 9.33212C5.27822 9.71279 4.12294 10.7089 3.42136 10.3167ZM0.855558 5.99096C0.855558 5.20274 2.22827 4.80125 2.87214 4.62473C3.01294 5.0687 3.19761 5.5329 3.42046 6.00231C3.19472 6.47872 3.00742 6.9503 2.86532 7.39949C2.25138 7.22911 0.855558 6.77968 0.855558 5.99096ZM3.41389 1.68883C4.11506 1.29531 5.20302 2.25369 5.66846 2.68505C5.34165 3.02533 5.01867 3.41272 4.71013 3.83492C4.18103 3.88247 3.67453 3.95884 3.20891 4.06113C3.03422 3.38277 2.71347 2.08192 3.41389 1.68883ZM7.64222 4.34141C8.0012 4.38534 8.34509 4.44375 8.66801 4.51524C8.57108 4.81652 8.45024 5.13155 8.30794 5.4545C8.10165 5.07498 7.88021 4.7031 7.64222 4.34141ZM6.00538 3.01804C6.22704 3.25086 6.44904 3.51086 6.66741 3.79293C6.22445 3.77263 5.78074 3.77253 5.33776 3.79264C5.55634 3.51318 5.78023 3.25357 6.00538 3.01804ZM3.69619 5.45416C3.55623 5.13232 3.43649 4.81589 3.33871 4.51032C3.65969 4.44066 4.00199 4.38375 4.35862 4.34054C4.11998 4.70144 3.89891 5.07318 3.69619 5.45416ZM4.36888 7.67465C4.00045 7.63477 3.65297 7.58076 3.33209 7.51303C3.43141 7.20205 3.55379 6.87881 3.69674 6.55007C3.90226 6.93498 4.12668 7.31034 4.36888 7.67465ZM6.01867 8.99681C5.79089 8.75848 5.5637 8.49491 5.3418 8.2114C5.78731 8.22838 6.23368 8.22841 6.67911 8.20913C6.46005 8.49781 6.23883 8.76177 6.01867 8.99681ZM8.31252 6.53332C8.46289 6.86563 8.58965 7.18713 8.69032 7.49285C8.36411 7.56502 8.01195 7.62314 7.64088 7.6663C7.88063 7.29777 8.10557 6.9201 8.31252 6.53332ZM7.03022 7.72278C6.3488 7.76998 5.66309 7.76948 4.98143 7.72664C4.59408 7.17804 4.24929 6.60111 3.95165 6.00216C4.24783 5.40446 4.59013 4.82866 4.97565 4.28092C5.65783 4.23092 6.34418 4.23081 7.02634 4.28121C7.40852 4.82892 7.75032 5.40322 8.05338 5.99555C7.75391 6.59297 7.40982 7.16992 7.03022 7.72278ZM8.56137 1.67497C9.26273 2.0672 8.95053 3.46022 8.79731 4.06596C8.3306 3.96155 7.82375 3.88383 7.29311 3.83555C6.98397 3.40877 6.66368 3.02069 6.34215 2.68481C6.81357 2.24415 7.86678 1.28658 8.56137 1.67497Z" fill="#53C1DE"/>
</svg>
