<svg width="16" height="16" viewBox="0 0 12 12" fill="none" xmlns="http://www.w3.org/2000/svg">
<g clip-path="url(#clip0_133_1038)">
<rect x="0.75" y="0.75" width="10.5" height="10.5" fill="#FFCA28"/>
<path d="M7.125 9.48282L7.89808 8.97128C7.95865 9.16162 8.34231 9.61368 8.82692 9.61368C9.31154 9.61368 9.53654 9.34899 9.53654 9.17352C9.53654 8.69532 9.04169 8.52672 8.80401 8.44574C8.76527 8.43254 8.73336 8.42167 8.71154 8.41216C8.70035 8.40729 8.68343 8.40082 8.66171 8.39252C8.39736 8.29153 7.42212 7.91893 7.42212 6.83888C7.42212 5.64926 8.57019 5.51245 8.82981 5.51245C8.99966 5.51245 9.81635 5.53327 10.2231 6.2976L9.47308 6.82104C9.30865 6.48794 9.03547 6.3779 8.86731 6.3779C8.45192 6.3779 8.36538 6.68243 8.36538 6.82104C8.36538 7.20999 8.81669 7.38433 9.19775 7.53153C9.29745 7.57004 9.39234 7.6067 9.47308 7.64485C9.88846 7.84114 10.5 8.16234 10.5 9.17352C10.5 9.67999 10.0752 10.5 9.00577 10.5C7.56923 10.5 7.18846 9.63747 7.125 9.48282Z" fill="#3E3E3E"/>
<path d="M3.375 9.5844L4.18075 9.07312C4.24389 9.26337 4.48922 9.61413 4.8452 9.61413C5.20117 9.61413 5.38337 9.24851 5.38337 9.07312V5.62495H6.37432V9.07312C6.39036 9.54873 6.12659 10.5 4.96245 10.5C3.89212 10.5 3.44716 9.86383 3.375 9.5844Z" fill="#3E3E3E"/>
</g>
<defs>
<clipPath id="clip0_133_1038">
<rect width="12" height="12" fill="white"/>
</clipPath>
</defs>
</svg>
